<?xml version="1.0" standalone="no"?>
<!DOCTYPE svg PUBLIC "-//W3C//DTD SVG 20010904//EN"
 "http://www.w3.org/TR/2001/REC-SVG-20010904/DTD/svg10.dtd">
<svg version="1.0" xmlns="http://www.w3.org/2000/svg"
 width="700.000000pt" height="700.000000pt" viewBox="0 0 700.000000 700.000000"
 preserveAspectRatio="xMidYMid meet">
<metadata>
Created by potrace 1.11, written by Peter Selinger 2001-2013
</metadata>
<g transform="translate(0.000000,700.000000) scale(0.100000,-0.100000)"
fill="#000000" stroke="none">
<path d="M2350 6503 c-102 -17 -232 -72 -330 -140 -209 -146 -386 -441 -449
-744 -6 -29 -14 -65 -16 -79 -20 -99 -27 -373 -12 -502 20 -178 84 -388 163
-538 60 -114 164 -248 234 -305 14 -11 32 -27 40 -35 54 -53 207 -130 310
-155 342 -85 700 108 904 486 59 109 126 291 142 389 2 14 8 45 14 70 22 110
30 302 18 440 -46 551 -343 991 -738 1095 -61 17 -225 27 -280 18z"/>
<path d="M4450 6504 c-129 -26 -216 -61 -315 -127 -168 -113 -302 -293 -409
-547 -17 -43 -63 -211 -72 -264 -3 -21 -8 -48 -10 -60 -8 -39 -18 -190 -18
-266 0 -79 13 -250 19 -260 2 -3 6 -24 9 -46 11 -68 15 -84 47 -188 74 -240
212 -457 374 -586 206 -164 457 -215 686 -140 70 23 152 61 157 73 2 4 8 7 14
7 21 0 130 92 204 171 97 105 225 338 253 461 1 4 8 26 16 49 8 22 21 77 30
122 8 45 17 96 21 112 10 54 13 358 3 425 -17 123 -20 135 -39 215 -97 412
-353 724 -675 824 -69 22 -239 36 -295 25z"/>
<path d="M529 4631 c-266 -67 -448 -283 -514 -611 -18 -90 -13 -298 10 -428
12 -70 66 -221 110 -306 137 -270 342 -449 591 -517 67 -18 96 -20 189 -15
116 5 171 18 251 59 249 126 397 402 398 742 1 162 -19 277 -74 427 -144 395
-473 665 -810 665 -47 0 -115 -7 -151 -16z"/>
<path d="M6225 4643 c-356 -66 -645 -368 -754 -786 -46 -178 -49 -392 -6 -557
60 -230 201 -410 389 -496 162 -74 372 -71 544 8 241 110 451 364 542 654 12
38 23 78 26 89 2 11 9 45 16 75 18 81 15 339 -5 427 -80 358 -334 589 -648
590 -46 0 -93 -2 -104 -4z"/>
<path d="M3437 3904 c-1 -1 -40 -5 -87 -8 -130 -11 -142 -13 -342 -61 -68 -16
-243 -84 -339 -131 -235 -115 -428 -254 -629 -451 -307 -301 -510 -603 -698
-1033 -75 -173 -156 -475 -178 -670 -3 -30 -8 -68 -10 -85 -6 -52 -5 -248 2
-305 41 -364 271 -596 649 -654 84 -13 390 -14 470 -2 17 3 48 7 70 10 102 14
126 17 210 31 50 7 104 16 120 20 26 5 133 24 220 40 17 3 41 7 55 9 14 3 79
14 145 25 109 18 149 23 270 36 54 6 210 6 260 0 127 -15 299 -41 395 -60 14
-3 50 -9 80 -15 59 -11 90 -17 130 -25 73 -14 291 -49 380 -60 25 -3 63 -7 85
-10 22 -3 112 -7 200 -9 306 -7 490 35 663 152 112 77 205 206 251 350 31 95
33 117 36 302 4 245 -31 467 -115 719 -173 523 -484 993 -885 1343 -70 60 -88
75 -165 132 -312 230 -679 373 -1025 401 -73 6 -214 12 -218 9z"/>
</g>
</svg>
