<?xml version="1.0" standalone="no"?>
<!DOCTYPE svg PUBLIC "-//W3C//DTD SVG 20010904//EN"
 "http://www.w3.org/TR/2001/REC-SVG-20010904/DTD/svg10.dtd">
<svg version="1.0" xmlns="http://www.w3.org/2000/svg"
 width="700.000000pt" height="700.000000pt" viewBox="0 0 700.000000 700.000000"
 preserveAspectRatio="xMidYMid meet">
<metadata>
Created by potrace 1.11, written by Peter Selinger 2001-2013
</metadata>
<g transform="translate(0.000000,700.000000) scale(0.100000,-0.100000)"
fill="#000000" stroke="none">
<path d="M2260 5560 c-51 -12 -90 -60 -90 -111 0 -88 54 -129 168 -129 l70 0
6 -92 c34 -477 128 -804 315 -1096 28 -43 116 -157 196 -253 80 -97 159 -202
177 -237 28 -55 32 -73 32 -142 0 -69 -4 -87 -32 -142 -18 -35 -94 -137 -170
-228 -76 -91 -163 -204 -195 -251 -117 -176 -212 -412 -261 -644 -29 -139 -56
-360 -56 -457 0 -95 -2 -98 -69 -98 -73 0 -122 -14 -150 -44 -30 -32 -38 -94
-17 -134 34 -66 -51 -62 1316 -62 1367 0 1282 -4 1316 62 21 40 13 102 -17
134 -28 30 -77 44 -150 44 -67 0 -69 3 -69 98 0 97 -27 319 -56 456 -50 236
-144 469 -261 645 -32 47 -119 160 -195 251 -76 91 -152 193 -170 228 -28 55
-32 73 -32 142 0 111 30 165 209 379 80 96 168 210 196 253 185 289 283 630
314 1091 l7 97 70 0 c114 0 168 41 168 129 0 53 -39 98 -95 111 -50 12 -2426
11 -2475 0z m1756 -522 c43 -48 44 -84 4 -203 -69 -204 -180 -371 -350 -525
-107 -97 -127 -110 -171 -110 -47 0 -89 31 -220 162 -149 148 -236 286 -299
473 -34 101 -37 145 -13 186 35 59 33 59 546 56 l469 -2 34 -37z m-458 -2251
c12 -7 67 -54 122 -105 165 -154 276 -320 339 -508 34 -102 38 -151 16 -194
-31 -60 -29 -60 -535 -60 -506 0 -504 0 -535 60 -22 43 -18 92 16 194 63 188
174 354 339 508 115 106 132 117 180 117 19 0 45 -5 58 -12z"/>
<path d="M3245 4818 c16 -51 104 -178 177 -253 l78 -80 83 86 c75 78 154 192
171 247 l7 22 -261 0 -261 0 6 -22z"/>
<path d="M3423 2437 c-77 -82 -117 -136 -157 -214 l-26 -53 260 0 260 0 -26
53 c-15 28 -40 72 -57 96 -33 49 -165 191 -177 191 -4 0 -39 -33 -77 -73z"/>
</g>
</svg>
